<svg width="506" height="126" viewBox="0 0 506 126" fill="none" xmlns="http://www.w3.org/2000/svg">
<path d="M0.745739 124H-1.25426V126H0.745739V124ZM0.745739 0.363632V-1.63637H-1.25426V0.363632H0.745739ZM73.4304 5.37429L72.5273 7.15877L72.5338 7.16206L72.5403 7.16531L73.4304 5.37429ZM88.5831 19.4403L86.8452 20.4301L86.8491 20.437L86.853 20.4438L88.5831 19.4403ZM88.5227 61.9403L90.2357 62.9728L90.2387 62.9676L88.5227 61.9403ZM73.1286 75.4631L72.2822 73.651L72.278 73.6529L73.1286 75.4631ZM16.2003 80.1719H14.2003V82.1719H16.2003V80.1719ZM16.2003 59.1633V57.1633H14.2003V59.1633H16.2003ZM57.0703 57.1108L57.8363 58.9583L57.0703 57.1108ZM64.4354 50.9531L62.7226 49.9204L62.717 49.9297L62.7115 49.9391L64.4354 50.9531ZM64.4354 30.3672L62.6989 31.3595L62.7042 31.3688L62.7096 31.378L64.4354 30.3672ZM57.0099 23.968L56.1874 25.791L56.2007 25.7971L56.2141 25.8029L57.0099 23.968ZM26.8857 21.7344V19.7344H24.8857V21.7344H26.8857ZM26.8857 124V126H28.8857V124H26.8857ZM67.5142 67.7358L69.2695 66.7772L68.7008 65.7358H67.5142V67.7358ZM98.2422 124V126H101.613L99.9975 123.041L98.2422 124ZM69.3857 124L67.6217 124.943L68.1867 126H69.3857V124ZM39.3217 67.7358V65.7358H35.9855L37.5578 68.6783L39.3217 67.7358ZM2.74574 124V0.363632H-1.25426V124H2.74574ZM0.745739 2.36363H49.5242V-1.63637H0.745739V2.36363ZM49.5242 2.36363C58.6277 2.36363 66.2706 3.99227 72.5273 7.15877L74.3335 3.58981C67.3895 0.0754356 59.0949 -1.63637 49.5242 -1.63637V2.36363ZM72.5403 7.16531C78.8476 10.2998 83.5929 14.7196 86.8452 20.4301L90.321 18.4505C86.651 12.0067 81.2944 7.04912 74.3205 3.58327L72.5403 7.16531ZM86.853 20.4438C90.1495 26.1273 91.8352 32.8725 91.8352 40.7507H95.8352C95.8352 32.289 94.0195 24.8272 90.3132 18.4369L86.853 20.4438ZM91.8352 40.7507C91.8352 48.6686 90.1298 55.3619 86.8067 60.9131L90.2387 62.9676C93.999 56.6864 95.8352 49.2533 95.8352 40.7507H91.8352ZM86.8098 60.9079C83.49 66.4159 78.6741 70.6655 72.2822 73.651L73.9749 77.2752C81.0253 73.9822 86.4722 69.2167 90.2356 62.9728L86.8098 60.9079ZM72.278 73.6529C65.9281 76.6366 58.1454 78.1719 48.8601 78.1719V82.1719C58.571 82.1719 66.9673 80.5679 73.9791 77.2732L72.278 73.6529ZM48.8601 78.1719H16.2003V82.1719H48.8601V78.1719ZM18.2003 80.1719V59.1633H14.2003V80.1719H18.2003ZM16.2003 61.1633H44.6342V57.1633H16.2003V61.1633ZM44.6342 61.1633C49.7906 61.1633 54.2174 60.4588 57.8363 58.9583L56.3043 55.2633C53.3228 56.4995 49.4589 57.1633 44.6342 57.1633V61.1633ZM57.8363 58.9583C61.4851 57.4454 64.3018 55.1248 66.1592 51.9672L62.7115 49.9391C61.3492 52.255 59.2559 54.0395 56.3043 55.2633L57.8363 58.9583ZM66.1481 51.9858C68.0309 48.8632 68.9105 45.0819 68.9105 40.7507H64.9105C64.9105 44.5492 64.1401 47.5695 62.7226 49.9204L66.1481 51.9858ZM68.9105 40.7507C68.9105 36.3806 68.0315 32.5497 66.1611 29.3564L62.7096 31.378C64.1394 33.8191 64.9105 36.9106 64.9105 40.7507H68.9105ZM66.1719 29.3749C64.3218 26.1372 61.4917 23.7319 57.8058 22.1332L56.2141 25.8029C59.209 27.1019 61.3293 28.9627 62.6989 31.3595L66.1719 29.3749ZM57.8325 22.145C54.1937 20.5031 49.7245 19.7344 44.5135 19.7344V23.7344C49.364 23.7344 53.2258 24.4547 56.1874 25.791L57.8325 22.145ZM44.5135 19.7344H26.8857V23.7344H44.5135V19.7344ZM24.8857 21.7344V124H28.8857V21.7344H24.8857ZM26.8857 122H0.745739V126H26.8857V122ZM65.7589 68.6944L96.4869 124.959L99.9975 123.041L69.2695 66.7772L65.7589 68.6944ZM98.2422 122H69.3857V126H98.2422V122ZM71.1496 123.057L41.0857 66.7932L37.5578 68.6783L67.6217 124.943L71.1496 123.057ZM39.3217 69.7358H67.5142V65.7358H39.3217V69.7358ZM125.899 119.835L124.88 121.556L124.892 121.563L125.899 119.835ZM110.142 103.052L108.363 103.966L108.366 103.97L110.142 103.052ZM110.142 52.8849L111.919 53.8032L111.921 53.7992L110.142 52.8849ZM125.899 36.1023L126.91 37.828L126.913 37.8261L125.899 36.1023ZM174.496 36.1023L173.477 37.8236L173.489 37.8306L174.496 36.1023ZM190.313 52.8849L188.534 53.7992L188.536 53.8032L190.313 52.8849ZM190.313 103.052L192.089 103.97L192.091 103.966L190.313 103.052ZM174.496 119.835L175.507 121.56L175.51 121.558L174.496 119.835ZM161.034 102.267L162.324 103.795L162.331 103.789L162.337 103.784L161.034 102.267ZM167.493 92.2457L165.607 91.581L165.604 91.5891L165.601 91.5971L167.493 92.2457ZM167.493 63.3892L165.601 64.0379L165.604 64.0459L165.607 64.0539L167.493 63.3892ZM161.034 53.3679L162.337 51.8509L161.034 53.3679ZM139.482 53.3679L138.199 51.8331L138.189 51.8419L139.482 53.3679ZM132.901 63.3892L131.015 62.7245L131.012 62.7325L131.01 62.7406L132.901 63.3892ZM132.901 92.2457L131.01 92.8944L131.012 92.9024L131.015 92.9104L132.901 92.2457ZM139.482 102.267L138.189 103.793L138.2 103.803L138.212 103.812L139.482 102.267ZM150.227 123.811C141.138 123.811 133.389 121.882 126.905 118.106L124.892 121.563C132.092 125.755 140.562 127.811 150.227 127.811V123.811ZM126.917 118.113C120.445 114.284 115.453 108.971 111.919 102.134L108.366 103.97C112.237 111.46 117.749 117.336 124.88 121.556L126.917 118.113ZM111.921 102.138C108.387 95.2614 106.588 87.2335 106.588 77.9986H102.588C102.588 87.7599 104.492 96.4342 108.363 103.966L111.921 102.138ZM106.588 77.9986C106.588 68.6798 108.388 60.6345 111.919 53.8032L108.366 51.9666C104.491 59.463 102.588 68.1602 102.588 77.9986H106.588ZM111.921 53.7992C115.455 46.9232 120.445 41.6148 126.91 37.828L124.888 34.3766C117.749 38.5585 112.235 44.4385 108.363 51.9707L111.921 53.7992ZM126.913 37.8261C133.395 34.0127 141.142 32.0653 150.227 32.0653V28.0653C140.559 28.0653 132.085 30.1426 124.885 34.3784L126.913 37.8261ZM150.227 32.0653C159.314 32.0653 167.037 34.0128 173.477 37.8235L175.514 34.381C168.351 30.1425 159.896 28.0653 150.227 28.0653V32.0653ZM173.489 37.8306C179.993 41.6182 185.001 46.9263 188.534 53.7992L192.091 51.9707C188.219 44.4354 182.682 38.5551 175.502 34.374L173.489 37.8306ZM188.536 53.8032C192.067 60.6345 193.867 68.6798 193.867 77.9986H197.867C197.867 68.1602 195.964 59.463 192.089 51.9666L188.536 53.8032ZM193.867 77.9986C193.867 87.2335 192.068 95.2614 188.534 102.138L192.091 103.966C195.963 96.4342 197.867 87.7599 197.867 77.9986H193.867ZM188.536 102.134C185.004 108.968 179.993 114.28 173.482 118.111L175.51 121.558C182.682 117.339 188.216 111.463 192.089 103.97L188.536 102.134ZM173.485 118.109C167.044 121.882 159.317 123.811 150.227 123.811V127.811C159.892 127.811 168.345 125.756 175.507 121.56L173.485 118.109ZM150.348 107.889C155.017 107.889 159.056 106.557 162.324 103.795L159.743 100.739C157.296 102.807 154.212 103.889 150.348 103.889V107.889ZM162.337 103.784C165.511 101.057 167.842 97.394 169.385 92.8944L165.601 91.5971C164.246 95.5492 162.271 98.5668 159.73 100.75L162.337 103.784ZM169.379 92.9104C170.957 88.4326 171.727 83.3921 171.727 77.8175H167.727C167.727 83.0288 167.007 87.6072 165.607 91.581L169.379 92.9104ZM171.727 77.8175C171.727 72.2428 170.957 67.2024 169.379 62.7245L165.607 64.0539C167.007 68.0278 167.727 72.6062 167.727 77.8175H171.727ZM169.385 62.7406C167.842 58.241 165.511 54.5777 162.337 51.8509L159.73 54.8849C162.271 57.0682 164.246 60.0857 165.601 64.0379L169.385 62.7406ZM162.337 51.8509C159.069 49.0429 155.025 47.6854 150.348 47.6854V51.6854C154.204 51.6854 157.284 52.7828 159.73 54.8849L162.337 51.8509ZM150.348 47.6854C145.635 47.6854 141.542 49.04 138.199 51.8332L140.764 54.9026C143.297 52.7858 146.448 51.6854 150.348 51.6854V47.6854ZM138.189 51.8419C134.975 54.5646 132.601 58.2246 131.015 62.7245L134.788 64.0539C136.18 60.1021 138.193 57.0813 140.775 54.8939L138.189 51.8419ZM131.01 62.7406C129.476 67.2133 128.728 72.2481 128.728 77.8175H132.728C132.728 72.6009 133.429 68.0168 134.793 64.0379L131.01 62.7406ZM128.728 77.8175C128.728 83.3869 129.476 88.4216 131.01 92.8944L134.793 91.5971C133.429 87.6181 132.728 83.034 132.728 77.8175H128.728ZM131.015 92.9104C132.601 97.4103 134.975 101.07 138.189 103.793L140.775 100.741C138.193 98.5537 136.18 95.5328 134.788 91.581L131.015 92.9104ZM138.212 103.812C141.555 106.56 145.644 107.889 150.348 107.889V103.889C146.44 103.889 143.285 102.804 140.752 100.722L138.212 103.812ZM270.053 84.5185H268.053V84.5282L268.053 84.5379L270.053 84.5185ZM270.053 31.2727V29.2727H268.053V31.2727H270.053ZM295.77 31.2727H297.77V29.2727H295.77V31.2727ZM295.77 124V126H297.77V124H295.77ZM271.079 124H269.079V126H271.079V124ZM271.079 107.157H273.079V105.157H271.079V107.157ZM270.113 107.157V105.157H268.74L268.247 106.438L270.113 107.157ZM259.669 120.257L258.547 118.601L258.541 118.606L259.669 120.257ZM225.621 120.982L226.648 119.265L225.621 120.982ZM214.573 108.968L212.787 109.868L212.793 109.879L214.573 108.968ZM210.589 90.3139H208.589L208.589 90.325L210.589 90.3139ZM210.589 31.2727V29.2727H208.589V31.2727H210.589ZM236.306 31.2727H238.306V29.2727H236.306V31.2727ZM236.306 85.7259H234.306V85.7332L234.306 85.7406L236.306 85.7259ZM240.713 98.7053L242.191 97.358L240.713 98.7053ZM261.058 101.362L261.984 103.134L261.994 103.129L262.004 103.123L261.058 101.362ZM267.578 94.9624L265.863 93.9334L265.857 93.9424L265.852 93.9515L267.578 94.9624ZM272.053 84.5185V31.2727H268.053V84.5185H272.053ZM270.053 33.2727H295.77V29.2727H270.053V33.2727ZM293.77 31.2727V124H297.77V31.2727H293.77ZM295.77 122H271.079V126H295.77V122ZM273.079 124V107.157H269.079V124H273.079ZM271.079 105.157H270.113V109.157H271.079V105.157ZM268.247 106.438C266.302 111.486 263.083 115.528 258.547 118.601L260.791 121.913C265.995 118.386 269.738 113.694 271.979 107.876L268.247 106.438ZM258.541 118.606C254.103 121.638 248.619 123.207 241.981 123.207V127.207C249.268 127.207 255.576 125.476 260.798 121.908L258.541 118.606ZM241.981 123.207C236.097 123.207 231.008 121.874 226.648 119.265L224.594 122.698C229.652 125.724 235.469 127.207 241.981 127.207V123.207ZM226.648 119.265C222.281 116.653 218.851 112.937 216.354 108.057L212.793 109.879C215.609 115.383 219.543 119.676 224.594 122.698L226.648 119.265ZM216.359 108.068C213.912 103.212 212.628 97.3126 212.589 90.3028L208.589 90.325C208.631 97.8039 210.002 104.341 212.787 109.868L216.359 108.068ZM212.589 90.3139V31.2727H208.589V90.3139H212.589ZM210.589 33.2727H236.306V29.2727H210.589V33.2727ZM234.306 31.2727V85.7259H238.306V31.2727H234.306ZM234.306 85.7406C234.349 91.5685 235.922 96.4174 239.235 100.052L242.191 97.358C239.709 94.6342 238.344 90.8302 238.306 85.7111L234.306 85.7406ZM239.235 100.052C242.564 103.705 247.014 105.474 252.365 105.474V101.474C247.975 101.474 244.658 100.065 242.191 97.358L239.235 100.052ZM252.365 105.474C255.78 105.474 258.996 104.695 261.984 103.134L260.132 99.5888C257.727 100.845 255.147 101.474 252.365 101.474V105.474ZM262.004 103.123C265.046 101.489 267.48 99.0856 269.303 95.9732L265.852 93.9515C264.375 96.4736 262.462 98.3365 260.111 99.5997L262.004 103.123ZM269.293 95.9913C271.217 92.7845 272.096 88.9178 272.053 84.499L268.053 84.5379C268.09 88.4099 267.319 91.5057 265.863 93.9334L269.293 95.9913ZM340.058 70.392L338.058 70.3718L338.058 70.3819V70.392H340.058ZM340.058 124V126H342.058V124H340.058ZM314.341 124H312.341V126H314.341V124ZM314.341 31.2727V29.2727H312.341V31.2727H314.341ZM338.851 31.2727H340.851V29.2727H338.851V31.2727ZM338.851 47.6328H336.851V49.6328H338.851V47.6328ZM339.938 47.6328V49.6328H341.316L341.807 48.3442L339.938 47.6328ZM350.261 34.8345L351.351 36.5114L351.36 36.505L350.261 34.8345ZM384.671 34.2912L385.685 32.5673L384.671 34.2912ZM395.839 46.3651L394.056 47.2704L394.059 47.276L395.839 46.3651ZM399.824 124V126H401.824V124H399.824ZM374.107 124H372.107V126H374.107V124ZM374.107 69.5469L372.107 69.5327L372.107 69.5398V69.5469H374.107ZM369.76 56.2656L368.283 57.6138L368.291 57.623L369.76 56.2656ZM348.45 53.6697L347.472 51.9251L347.46 51.9316L348.45 53.6697ZM342.292 60.1896L340.518 59.2653L340.513 59.2749L342.292 60.1896ZM338.058 70.392V124H342.058V70.392H338.058ZM340.058 122H314.341V126H340.058V122ZM316.341 124V31.2727H312.341V124H316.341ZM314.341 33.2727H338.851V29.2727H314.341V33.2727ZM336.851 31.2727V47.6328H340.851V31.2727H336.851ZM338.851 49.6328H339.938V45.6328H338.851V49.6328ZM341.807 48.3442C343.709 43.3468 346.877 39.4191 351.351 36.5114L349.171 33.1576C343.985 36.5284 340.271 41.1329 338.068 46.9214L341.807 48.3442ZM351.36 36.505C355.806 33.5786 361.261 32.0653 367.828 32.0653V28.0653C360.631 28.0653 354.375 29.7315 349.161 33.164L351.36 36.505ZM367.828 32.0653C373.968 32.0653 379.221 33.4057 383.657 36.0151L385.685 32.5673C380.543 29.5422 374.567 28.0653 367.828 28.0653V32.0653ZM383.657 36.0151C388.098 38.6275 391.563 42.3591 394.056 47.2704L397.623 45.4597C394.804 39.907 390.823 35.5894 385.685 32.5673L383.657 36.0151ZM394.059 47.276C396.541 52.1271 397.824 57.9983 397.824 64.9588H401.824C401.824 57.5112 400.451 50.9865 397.62 45.4541L394.059 47.276ZM397.824 64.9588V124H401.824V64.9588H397.824ZM399.824 122H374.107V126H399.824V122ZM376.107 124V69.5469H372.107V124H376.107ZM376.106 69.5611C376.149 63.5409 374.608 58.5652 371.229 54.9083L368.291 57.623C370.788 60.3249 372.144 64.2035 372.107 69.5327L376.106 69.5611ZM371.237 54.9175C367.851 51.2067 363.228 49.4361 357.626 49.4361V53.4361C362.327 53.4361 365.793 54.8852 368.283 57.6137L371.237 54.9175ZM357.626 49.4361C353.87 49.4361 350.465 50.2468 347.472 51.9252L349.428 55.4143C351.746 54.1145 354.46 53.4361 357.626 53.4361V49.4361ZM347.46 51.9316C344.486 53.6245 342.172 56.092 340.518 59.2654L344.066 61.1139C345.39 58.5723 347.181 56.6932 349.439 55.4079L347.46 51.9316ZM340.513 59.2749C338.89 62.4311 338.101 66.1544 338.058 70.3718L342.058 70.4122C342.096 66.6609 342.796 63.5826 344.07 61.1043L340.513 59.2749ZM433.125 120.076L432.04 121.756L432.047 121.761L432.054 121.765L433.125 120.076ZM419.602 103.957L417.787 104.798L417.793 104.81L419.602 103.957ZM419.783 51.255L421.582 52.1288L421.584 52.1248L419.783 51.255ZM433.427 35.3778L434.477 37.0799L434.48 37.0779L433.427 35.3778ZM465.181 32.7216L464.27 34.5021L464.282 34.5084L464.295 34.5145L465.181 32.7216ZM473.633 39.2415L472.083 40.5054L472.093 40.5184L472.104 40.5312L473.633 39.2415ZM478.583 46.848L476.76 47.6712L477.292 48.848H478.583V46.848ZM479.368 46.848V48.848H481.368V46.848H479.368ZM479.368 0.363632V-1.63637H477.368V0.363632H479.368ZM505.025 0.363632H507.025V-1.63637H505.025V0.363632ZM505.025 124V126H507.025V124H505.025ZM479.67 124H477.67V126H479.67V124ZM479.67 109.149H481.67V107.149H479.67V109.149ZM478.583 109.149V107.149H477.312L476.772 108.3L478.583 109.149ZM473.452 116.816L471.945 115.501L471.943 115.502L473.452 116.816ZM464.939 123.034L464.087 121.225L464.079 121.229L464.939 123.034ZM470.916 101.663L472.155 103.234L472.157 103.231L470.916 101.663ZM477.557 92.0646L475.689 91.3504L475.685 91.3584L475.682 91.3664L477.557 92.0646ZM477.617 63.2685L479.489 62.5642L477.617 63.2685ZM470.976 53.8508L472.19 52.2615L470.976 53.8508ZM449.726 53.9716L448.485 52.4035V52.4035L449.726 53.9716ZM443.146 91.9439L441.264 92.62L441.268 92.6311L441.272 92.6421L443.146 91.9439ZM449.726 101.603L448.461 103.152L448.473 103.162L448.485 103.171L449.726 101.603ZM452.262 123.509C445.582 123.509 439.577 121.797 434.195 118.387L432.054 121.765C438.103 125.599 444.856 127.509 452.262 127.509V123.509ZM434.209 118.396C428.896 114.966 424.618 109.905 421.411 103.104L417.793 104.81C421.267 112.177 426.004 117.861 432.04 121.756L434.209 118.396ZM421.417 103.117C418.271 96.3262 416.652 87.8981 416.652 77.7571H412.652C412.652 88.3027 414.333 97.3414 417.787 104.798L421.417 103.117ZM416.652 77.7571C416.652 67.3324 418.332 58.8204 421.582 52.1288L417.984 50.3812C414.393 57.7758 412.652 66.9318 412.652 77.7571H416.652ZM421.584 52.1248C424.87 45.3221 429.181 40.3475 434.477 37.0799L432.376 33.6758C426.323 37.411 421.539 43.0212 417.982 50.3852L421.584 52.1248ZM434.48 37.0779C439.875 33.7347 445.768 32.0653 452.202 32.0653V28.0653C445.032 28.0653 438.408 29.9377 432.373 33.6778L434.48 37.0779ZM452.202 32.0653C457.178 32.0653 461.169 32.9156 464.27 34.5021L466.092 30.9411C462.27 28.9859 457.608 28.0653 452.202 28.0653V32.0653ZM464.295 34.5145C467.58 36.1381 470.157 38.1434 472.083 40.5054L475.183 37.9776C472.842 35.1075 469.785 32.7662 466.067 30.9286L464.295 34.5145ZM472.104 40.5312C474.185 42.997 475.724 45.3778 476.76 47.6712L480.406 46.0248C479.188 43.3277 477.427 40.6375 475.161 37.9517L472.104 40.5312ZM478.583 48.848H479.368V44.848H478.583V48.848ZM481.368 46.848V0.363632H477.368V46.848H481.368ZM479.368 2.36363H505.025V-1.63637H479.368V2.36363ZM503.025 0.363632V124H507.025V0.363632H503.025ZM505.025 122H479.67V126H505.025V122ZM481.67 124V109.149H477.67V124H481.67ZM479.67 107.149H478.583V111.149H479.67V107.149ZM476.772 108.3C475.657 110.68 474.058 113.081 471.945 115.501L474.958 118.131C477.273 115.48 479.094 112.77 480.394 109.998L476.772 108.3ZM471.943 115.502C469.98 117.757 467.38 119.673 464.087 121.225L465.792 124.843C469.502 123.095 472.576 120.866 474.96 118.13L471.943 115.502ZM464.079 121.229C460.955 122.718 457.041 123.509 452.262 123.509V127.509C457.464 127.509 462.002 126.65 465.8 124.839L464.079 121.229ZM460.412 107.044C464.941 107.044 468.896 105.804 472.155 103.234L469.677 100.093C467.221 102.03 464.173 103.044 460.412 103.044V107.044ZM472.157 103.231C475.391 100.672 477.798 97.1462 479.431 92.7628L475.682 91.3664C474.257 95.1932 472.237 98.0669 469.675 100.095L472.157 103.231ZM479.425 92.7789C481.101 88.3959 481.911 83.3345 481.911 77.6364H477.911C477.911 82.9657 477.152 87.5231 475.689 91.3504L479.425 92.7789ZM481.911 77.6364C481.911 71.9441 481.122 66.9057 479.489 62.5642L475.745 63.9727C477.17 67.7609 477.911 72.3012 477.911 77.6364H481.911ZM479.489 62.5642C477.853 58.2162 475.439 54.7429 472.19 52.2615L469.762 55.4402C472.309 57.3859 474.322 60.191 475.745 63.9727L479.489 62.5642ZM472.19 52.2615C468.897 49.7458 464.933 48.5305 460.412 48.5305V52.5305C464.181 52.5305 467.26 53.5288 469.762 55.4402L472.19 52.2615ZM460.412 48.5305C455.803 48.5305 451.786 49.7903 448.485 52.4035L450.968 55.5397C453.462 53.5648 456.569 52.5305 460.412 52.5305V48.5305ZM448.485 52.4035C445.251 54.9633 442.862 58.4708 441.268 62.822L445.024 64.1979C446.408 60.4193 448.406 57.5679 450.968 55.5397L448.485 52.4035ZM441.268 62.822C439.682 67.1524 438.912 72.1024 438.912 77.6364H442.912C442.912 72.4648 443.632 67.9972 445.024 64.1979L441.268 62.822ZM438.912 77.6364C438.912 83.2099 439.682 88.2153 441.264 92.62L445.028 91.2677C443.632 87.3818 442.912 82.8488 442.912 77.6364H438.912ZM441.272 92.6421C442.902 97.0172 445.281 100.554 448.461 103.152L450.992 100.054C448.457 97.9831 446.449 95.0809 445.02 91.2457L441.272 92.6421ZM448.485 103.171C451.786 105.784 455.803 107.044 460.412 107.044V103.044C456.569 103.044 453.462 102.01 450.968 100.035L448.485 103.171Z" fill="white"/>
</svg>
