<svg width="14" height="14" viewBox="0 0 14 14" fill="none" xmlns="http://www.w3.org/2000/svg">
<path d="M0.333496 4.22238H3.11127V13.6668H0.333496V4.22238ZM1.71405 3.11127H1.6985C0.869607 3.11127 0.333496 2.4935 0.333496 1.72183C0.333496 0.933496 0.886274 0.333496 1.73016 0.333496C2.57516 0.333496 3.09572 0.933496 3.11127 1.72183C3.11127 2.49294 2.57516 3.11127 1.71405 3.11127ZM13.6668 13.6668H10.8891V8.61183C10.8891 7.39072 10.2085 6.55738 9.11572 6.55738C8.28183 6.55738 7.83072 7.11961 7.61183 7.66294C7.53183 7.85739 7.55572 8.39516 7.55572 8.66683V13.6668H4.77794V4.22238H7.55572V5.67572C7.95627 5.05572 8.5835 4.22238 10.1879 4.22238C12.1757 4.22238 13.6663 5.47238 13.6663 8.2635L13.6668 13.6668Z" fill="#D0DAF5"/>
</svg>
