<svg width="22" height="22" viewBox="0 0 22 22" fill="none" xmlns="http://www.w3.org/2000/svg">
<path d="M21.0955 10.9967C21.0955 12.3987 21.0673 13.8047 21.1035 15.2067C21.164 17.6885 19.6048 19.6062 17.6186 20.4603C16.8209 20.8027 15.9829 20.984 15.1167 20.984C12.4054 20.9881 9.68997 21.0243 6.97859 20.9719C4.93599 20.9317 3.25599 20.0776 2.05138 18.3935C1.41886 17.5072 1.1167 16.5 1.1167 15.4082C1.1167 12.5195 1.1167 9.63493 1.1167 6.74629C1.1167 4.38945 2.2649 2.74167 4.30347 1.67001C5.18981 1.2067 6.15269 1.00929 7.15586 1.00526C9.78666 1.00526 12.4215 0.989147 15.0523 1.01332C17.0949 1.02943 18.7991 1.81102 20.056 3.45477C20.7571 4.37333 21.0955 5.42887 21.0955 6.58917C21.0955 8.05565 21.0955 9.52615 21.0955 10.9967ZM2.60332 10.9967C2.60332 12.4752 2.60332 13.9498 2.60332 15.4283C2.60332 16.0891 2.75642 16.7095 3.09886 17.2695C3.99728 18.74 5.35499 19.4571 7.03902 19.4853C9.74234 19.5256 12.4497 19.5014 15.157 19.4934C15.8218 19.4934 16.4664 19.3564 17.0667 19.0704C18.7024 18.2888 19.6169 17.0439 19.6088 15.1745C19.5927 12.3141 19.6048 9.45364 19.6048 6.59319C19.6048 5.78341 19.3752 5.04211 18.8958 4.38945C17.9691 3.13649 16.688 2.52009 15.157 2.50397C12.4577 2.47174 9.75845 2.49189 7.05917 2.49591C6.48305 2.49591 5.92707 2.61275 5.38722 2.81419C3.90462 3.36613 2.52678 4.76412 2.59124 6.82284C2.63958 8.2168 2.60332 9.60673 2.60332 10.9967Z" fill="#333333" stroke="#333333"/>
<path d="M11.1282 15.2672C8.52967 15.2672 6.4347 13.1964 6.43067 10.618C6.42664 8.07984 8.53773 6.00098 11.1202 6.00098C13.7107 5.99695 15.8137 8.07178 15.8178 10.6301C15.8178 13.1843 13.7188 15.2632 11.1282 15.2672ZM11.1282 13.7765C12.8969 13.7765 14.3311 12.3624 14.3271 10.622C14.3231 8.89768 12.8888 7.48761 11.1282 7.48761C9.3596 7.48761 7.91729 8.89365 7.91729 10.6301C7.92132 12.3705 9.3596 13.7806 11.1282 13.7765Z" fill="#333333" stroke="#333333"/>
<path d="M16.3615 4.59082C16.9054 4.59082 17.3485 5.05413 17.3485 5.62219C17.3445 6.19025 16.8973 6.64953 16.3534 6.6455C15.8176 6.64147 15.3784 6.18219 15.3784 5.62622C15.3744 5.05816 15.8176 4.59082 16.3615 4.59082Z" fill="#333333" stroke="#333333"/>
</svg>
