<svg width="18" height="14" viewBox="0 0 18 14" fill="none" xmlns="http://www.w3.org/2000/svg">
<path d="M17.0284 0.359033C16.3493 0.679866 15.1934 1.28153 14.6126 1.39653C14.5901 1.40237 14.5718 1.40987 14.5501 1.4157C13.8726 0.747366 12.9443 0.3332 11.9168 0.3332C9.84594 0.3332 8.16677 2.01237 8.16677 4.0832C8.16677 4.19237 8.15761 4.3932 8.16677 4.49987C5.48511 4.49987 3.52677 3.1007 2.06094 1.30237C1.86511 1.0607 1.65677 1.18653 1.61344 1.3582C1.51594 1.74653 1.48261 2.3957 1.48261 2.85903C1.48261 4.02653 2.39511 5.1732 3.81594 5.88403C3.55427 5.95153 3.26594 5.99987 2.96594 5.99987C2.61261 5.99987 2.20594 5.90737 1.85011 5.7207C1.71844 5.65153 1.43427 5.6707 1.51844 6.00737C1.85594 7.35653 3.39594 8.30403 4.77177 8.57987C4.45927 8.76403 3.79261 8.72653 3.48594 8.72653C3.37261 8.72653 2.97844 8.69987 2.72344 8.6682C2.49094 8.63987 2.13344 8.69987 2.43261 9.1532C3.07511 10.1257 4.52844 10.7365 5.77927 10.7599C4.62761 11.6632 2.74427 11.9932 0.940108 11.9932C0.575108 11.9849 0.593441 12.4007 0.887608 12.5549C2.21844 13.2532 4.39844 13.6665 5.95594 13.6665C12.1476 13.6665 15.6668 8.94737 15.6668 4.49903C15.6668 4.42737 15.6651 4.27737 15.6626 4.12653C15.6626 4.11153 15.6668 4.09737 15.6668 4.08237C15.6668 4.05987 15.6601 4.0382 15.6601 4.0157C15.6576 3.90237 15.6551 3.79653 15.6526 3.74153C16.1434 3.38737 16.8951 2.77237 17.2751 2.30153C17.4043 2.14153 17.3001 1.94737 17.1243 2.0082C16.6718 2.1657 15.8893 2.4707 15.3993 2.52903C16.3801 1.87987 16.8651 1.31487 17.2818 0.687366C17.4243 0.4732 17.2459 0.2557 17.0284 0.359033Z" fill="#D0DAF5"/>
</svg>
