<svg width="131" height="48" viewBox="0 0 131 48" fill="none" xmlns="http://www.w3.org/2000/svg">
<path d="M2.27557 27V0.818181H12.6051C14.5824 0.818181 16.2699 1.17187 17.6676 1.87926C19.0739 2.57812 20.1435 3.57102 20.8764 4.85795C21.6179 6.13636 21.9886 7.64062 21.9886 9.37074C21.9886 11.1094 21.6136 12.6051 20.8636 13.858C20.1136 15.1023 19.027 16.0568 17.6037 16.7216C16.1889 17.3864 14.4759 17.7188 12.4645 17.7188H5.5483V13.2699H11.5696C12.6264 13.2699 13.5043 13.125 14.2031 12.8352C14.902 12.5455 15.4219 12.1108 15.7628 11.5312C16.1122 10.9517 16.2869 10.2315 16.2869 9.37074C16.2869 8.50142 16.1122 7.76847 15.7628 7.17188C15.4219 6.57528 14.8977 6.12358 14.1903 5.81676C13.4915 5.50142 12.6094 5.34375 11.544 5.34375H7.81108V27H2.27557ZM16.4148 15.0852L22.9219 27H16.8111L10.4446 15.0852H16.4148ZM32.354 27.3835C30.3683 27.3835 28.6509 26.9616 27.2021 26.1179C25.7617 25.2656 24.6495 24.081 23.8654 22.5639C23.0813 21.0384 22.6893 19.2699 22.6893 17.2585C22.6893 15.2301 23.0813 13.4574 23.8654 11.9403C24.6495 10.4148 25.7617 9.23011 27.2021 8.38636C28.6509 7.53409 30.3683 7.10795 32.354 7.10795C34.3398 7.10795 36.0529 7.53409 37.4933 8.38636C38.9421 9.23011 40.0586 10.4148 40.8427 11.9403C41.6268 13.4574 42.0188 15.2301 42.0188 17.2585C42.0188 19.2699 41.6268 21.0384 40.8427 22.5639C40.0586 24.081 38.9421 25.2656 37.4933 26.1179C36.0529 26.9616 34.3398 27.3835 32.354 27.3835ZM32.3796 23.1648C33.283 23.1648 34.0373 22.9091 34.6424 22.3977C35.2475 21.8778 35.7035 21.1705 36.0103 20.2756C36.3256 19.3807 36.4833 18.3622 36.4833 17.2202C36.4833 16.0781 36.3256 15.0597 36.0103 14.1648C35.7035 13.2699 35.2475 12.5625 34.6424 12.0426C34.0373 11.5227 33.283 11.2628 32.3796 11.2628C31.4677 11.2628 30.7006 11.5227 30.0785 12.0426C29.4648 12.5625 29.0004 13.2699 28.685 14.1648C28.3782 15.0597 28.2248 16.0781 28.2248 17.2202C28.2248 18.3622 28.3782 19.3807 28.685 20.2756C29.0004 21.1705 29.4648 21.8778 30.0785 22.3977C30.7006 22.9091 31.4677 23.1648 32.3796 23.1648ZM56.1523 18.6392V7.36364H61.5984V27H56.3697V23.4332H56.1651C55.7219 24.5838 54.9847 25.5085 53.9535 26.2074C52.9308 26.9062 51.6822 27.2557 50.2077 27.2557C48.8952 27.2557 47.7404 26.9574 46.7433 26.3608C45.7461 25.7642 44.9663 24.9162 44.4038 23.8168C43.8498 22.7173 43.5685 21.4006 43.56 19.8665V7.36364H49.006V18.8949C49.0146 20.054 49.3256 20.9702 49.9393 21.6435C50.5529 22.3168 51.3754 22.6534 52.4066 22.6534C53.0629 22.6534 53.6765 22.5043 54.2475 22.206C54.8185 21.8991 55.2788 21.4474 55.6282 20.8509C55.9862 20.2543 56.1609 19.517 56.1523 18.6392ZM69.4006 15.6477V27H63.9545V7.36364H69.1449V10.8281H69.375C69.8097 9.68608 70.5384 8.78267 71.5611 8.1179C72.5838 7.4446 73.8239 7.10795 75.2812 7.10795C76.6449 7.10795 77.8338 7.40625 78.848 8.00284C79.8622 8.59943 80.6506 9.4517 81.2131 10.5597C81.7756 11.6591 82.0568 12.9716 82.0568 14.4972V27H76.6108V15.4688C76.6193 14.267 76.3125 13.3295 75.6903 12.6562C75.0682 11.9744 74.2116 11.6335 73.1207 11.6335C72.3878 11.6335 71.7401 11.7912 71.1776 12.1065C70.6236 12.4219 70.1889 12.8821 69.8736 13.4872C69.5668 14.0838 69.4091 14.804 69.4006 15.6477ZM91.5849 27.3196C90.0934 27.3196 88.7425 26.9361 87.5323 26.169C86.3306 25.3935 85.3761 24.2557 84.6687 22.7557C83.9698 21.2472 83.6204 19.3977 83.6204 17.2074C83.6204 14.9574 83.9826 13.0866 84.707 11.5952C85.4315 10.0952 86.3945 8.97443 87.5962 8.23295C88.8065 7.48295 90.1317 7.10795 91.5721 7.10795C92.6715 7.10795 93.5877 7.29545 94.3207 7.67045C95.0621 8.03693 95.6587 8.49716 96.1104 9.05114C96.5707 9.59659 96.9201 10.1335 97.1587 10.6619H97.3249V0.818181H102.758V27H97.3889V23.8551H97.1587C96.9031 24.4006 96.5408 24.9418 96.0721 25.4787C95.6119 26.0071 95.011 26.446 94.2695 26.7955C93.5366 27.1449 92.6417 27.3196 91.5849 27.3196ZM93.3107 22.9858C94.1886 22.9858 94.93 22.7472 95.5352 22.2699C96.1488 21.7841 96.6175 21.1065 96.9414 20.2372C97.2738 19.3679 97.44 18.3494 97.44 17.1818C97.44 16.0142 97.2781 15 96.9542 14.1392C96.6303 13.2784 96.1616 12.6136 95.5479 12.1449C94.9343 11.6761 94.1886 11.4418 93.3107 11.4418C92.4158 11.4418 91.6616 11.6847 91.0479 12.1705C90.4343 12.6562 89.9698 13.3295 89.6545 14.1903C89.3391 15.0511 89.1815 16.0483 89.1815 17.1818C89.1815 18.3239 89.3391 19.3338 89.6545 20.2116C89.9783 21.081 90.4428 21.7628 91.0479 22.2571C91.6616 22.7429 92.4158 22.9858 93.3107 22.9858ZM111.517 27V23.0114L120.836 14.3821C121.629 13.6151 122.294 12.9247 122.831 12.3111C123.376 11.6974 123.789 11.0966 124.071 10.5085C124.352 9.91193 124.493 9.26847 124.493 8.57812C124.493 7.81108 124.318 7.15057 123.968 6.59659C123.619 6.03409 123.142 5.60369 122.537 5.3054C121.931 4.99858 121.245 4.84517 120.478 4.84517C119.677 4.84517 118.978 5.0071 118.382 5.33097C117.785 5.65483 117.325 6.11932 117.001 6.72443C116.677 7.32954 116.515 8.04971 116.515 8.88494H111.261C111.261 7.17187 111.649 5.68466 112.424 4.4233C113.2 3.16193 114.287 2.18608 115.684 1.49574C117.082 0.805397 118.693 0.460226 120.517 0.460226C122.392 0.460226 124.024 0.792613 125.413 1.45739C126.811 2.11364 127.897 3.02557 128.673 4.19318C129.449 5.36079 129.836 6.69886 129.836 8.20739C129.836 9.19602 129.64 10.1719 129.248 11.1349C128.865 12.098 128.179 13.1676 127.19 14.3438C126.201 15.5114 124.808 16.9134 123.01 18.5497L119.187 22.2955V22.4744H130.181V27H111.517ZM1.65057 36.8182L4.6733 45.3892H4.79261L7.81534 36.8182H9.10795L5.36932 47H4.09659L0.357955 36.8182H1.65057ZM18.6939 47V36.8182H24.8388V37.9119H19.9268V41.3523H24.5206V42.446H19.9268V45.9062H24.9183V47H18.6939ZM43.1349 36.8182V47H41.9418L36.3935 39.0057H36.294V47H35.0611V36.8182H36.2543L41.8224 44.8324H41.9219V36.8182H43.1349ZM53.0453 37.9119V36.8182H60.6816V37.9119H57.4799V47H56.247V37.9119H53.0453ZM77.2663 36.8182H78.4993V43.5597C78.4993 44.2557 78.3352 44.8771 78.0071 45.424C77.6823 45.9676 77.2232 46.3968 76.63 46.7116C76.0367 47.0232 75.3407 47.179 74.5419 47.179C73.7431 47.179 73.0471 47.0232 72.4538 46.7116C71.8606 46.3968 71.3999 45.9676 71.0717 45.424C70.7469 44.8771 70.5845 44.2557 70.5845 43.5597V36.8182H71.8175V43.4602C71.8175 43.9574 71.9268 44.3999 72.1456 44.7876C72.3643 45.1721 72.6759 45.4754 73.0803 45.6974C73.4879 45.9162 73.9751 46.0256 74.5419 46.0256C75.1087 46.0256 75.5959 45.9162 76.0036 45.6974C76.4112 45.4754 76.7228 45.1721 76.9382 44.7876C77.157 44.3999 77.2663 43.9574 77.2663 43.4602V36.8182ZM88.9615 47V36.8182H92.4018C93.1973 36.8182 93.8502 36.9541 94.3606 37.2259C94.871 37.4943 95.2489 37.8639 95.4941 38.3345C95.7394 38.8052 95.862 39.3404 95.862 39.9403C95.862 40.5402 95.7394 41.0722 95.4941 41.5362C95.2489 42.0002 94.8727 42.3648 94.3656 42.63C93.8585 42.8918 93.2105 43.0227 92.4217 43.0227H89.6376V41.9091H92.3819C92.9255 41.9091 93.363 41.8295 93.6944 41.6705C94.0292 41.5114 94.2711 41.286 94.4203 40.9943C94.5727 40.6993 94.649 40.348 94.649 39.9403C94.649 39.5327 94.5727 39.1764 94.4203 38.8714C94.2678 38.5665 94.0242 38.3312 93.6895 38.1655C93.3547 37.9964 92.9122 37.9119 92.362 37.9119H90.1944V47H88.9615ZM93.7541 42.4261L96.2598 47H94.8279L92.362 42.4261H93.7541ZM105.917 47V36.8182H112.061V37.9119H107.15V41.3523H111.743V42.446H107.15V45.9062H112.141V47H105.917ZM127.852 39.3636C127.792 38.8598 127.55 38.4688 127.126 38.1903C126.702 37.9119 126.181 37.7727 125.565 37.7727C125.114 37.7727 124.72 37.8456 124.382 37.9915C124.047 38.1373 123.785 38.3378 123.596 38.593C123.411 38.8482 123.318 39.1383 123.318 39.4631C123.318 39.7348 123.382 39.9685 123.512 40.1641C123.644 40.3563 123.813 40.517 124.019 40.6463C124.224 40.7723 124.44 40.8767 124.665 40.9595C124.891 41.0391 125.098 41.1037 125.287 41.1534L126.321 41.4318C126.586 41.5014 126.881 41.5975 127.206 41.7202C127.534 41.8428 127.847 42.0102 128.145 42.2223C128.447 42.4311 128.695 42.6996 128.891 43.0277C129.087 43.3558 129.184 43.7585 129.184 44.2358C129.184 44.786 129.04 45.2831 128.752 45.7273C128.467 46.1714 128.049 46.5244 127.499 46.7862C126.952 47.0481 126.288 47.179 125.505 47.179C124.776 47.179 124.145 47.0613 123.611 46.826C123.081 46.5907 122.663 46.2625 122.358 45.8416C122.057 45.4207 121.886 44.9318 121.846 44.375H123.119C123.152 44.7595 123.281 45.0777 123.507 45.3295C123.735 45.5781 124.024 45.7637 124.372 45.8864C124.723 46.0057 125.101 46.0653 125.505 46.0653C125.976 46.0653 126.399 45.9891 126.773 45.8366C127.148 45.6809 127.444 45.4654 127.663 45.1903C127.882 44.9119 127.991 44.5871 127.991 44.2159C127.991 43.8778 127.897 43.6027 127.708 43.3906C127.519 43.1785 127.27 43.0062 126.962 42.8736C126.654 42.741 126.321 42.625 125.963 42.5256L124.71 42.1676C123.914 41.9389 123.285 41.6125 122.821 41.1882C122.357 40.764 122.125 40.2088 122.125 39.5227C122.125 38.9527 122.279 38.4555 122.587 38.0312C122.899 37.6037 123.316 37.2723 123.84 37.0369C124.367 36.7983 124.955 36.679 125.605 36.679C126.261 36.679 126.844 36.7966 127.355 37.032C127.865 37.264 128.27 37.5821 128.568 37.9865C128.869 38.3909 129.029 38.8499 129.045 39.3636H127.852Z" fill="#DC0A0A"/>
</svg>
