<svg width="129" height="28" viewBox="0 0 129 28" fill="none" xmlns="http://www.w3.org/2000/svg">
<path d="M0.275568 27V0.818181H10.6051C12.5824 0.818181 14.2699 1.17187 15.6676 1.87926C17.0739 2.57812 18.1435 3.57102 18.8764 4.85795C19.6179 6.13636 19.9886 7.64062 19.9886 9.37074C19.9886 11.1094 19.6136 12.6051 18.8636 13.858C18.1136 15.1023 17.027 16.0568 15.6037 16.7216C14.1889 17.3864 12.4759 17.7188 10.4645 17.7188H3.5483V13.2699H9.5696C10.6264 13.2699 11.5043 13.125 12.2031 12.8352C12.902 12.5455 13.4219 12.1108 13.7628 11.5312C14.1122 10.9517 14.2869 10.2315 14.2869 9.37074C14.2869 8.50142 14.1122 7.76847 13.7628 7.17188C13.4219 6.57528 12.8977 6.12358 12.1903 5.81676C11.4915 5.50142 10.6094 5.34375 9.54403 5.34375H5.81108V27H0.275568ZM14.4148 15.0852L20.9219 27H14.8111L8.4446 15.0852H14.4148ZM30.354 27.3835C28.3683 27.3835 26.6509 26.9616 25.2021 26.1179C23.7617 25.2656 22.6495 24.081 21.8654 22.5639C21.0813 21.0384 20.6893 19.2699 20.6893 17.2585C20.6893 15.2301 21.0813 13.4574 21.8654 11.9403C22.6495 10.4148 23.7617 9.23011 25.2021 8.38636C26.6509 7.53409 28.3683 7.10795 30.354 7.10795C32.3398 7.10795 34.0529 7.53409 35.4933 8.38636C36.9421 9.23011 38.0586 10.4148 38.8427 11.9403C39.6268 13.4574 40.0188 15.2301 40.0188 17.2585C40.0188 19.2699 39.6268 21.0384 38.8427 22.5639C38.0586 24.081 36.9421 25.2656 35.4933 26.1179C34.0529 26.9616 32.3398 27.3835 30.354 27.3835ZM30.3796 23.1648C31.283 23.1648 32.0373 22.9091 32.6424 22.3977C33.2475 21.8778 33.7035 21.1705 34.0103 20.2756C34.3256 19.3807 34.4833 18.3622 34.4833 17.2202C34.4833 16.0781 34.3256 15.0597 34.0103 14.1648C33.7035 13.2699 33.2475 12.5625 32.6424 12.0426C32.0373 11.5227 31.283 11.2628 30.3796 11.2628C29.4677 11.2628 28.7006 11.5227 28.0785 12.0426C27.4648 12.5625 27.0004 13.2699 26.685 14.1648C26.3782 15.0597 26.2248 16.0781 26.2248 17.2202C26.2248 18.3622 26.3782 19.3807 26.685 20.2756C27.0004 21.1705 27.4648 21.8778 28.0785 22.3977C28.7006 22.9091 29.4677 23.1648 30.3796 23.1648ZM54.1523 18.6392V7.36364H59.5984V27H54.3697V23.4332H54.1651C53.7219 24.5838 52.9847 25.5085 51.9535 26.2074C50.9308 26.9062 49.6822 27.2557 48.2077 27.2557C46.8952 27.2557 45.7404 26.9574 44.7433 26.3608C43.7461 25.7642 42.9663 24.9162 42.4038 23.8168C41.8498 22.7173 41.5685 21.4006 41.56 19.8665V7.36364H47.006V18.8949C47.0146 20.054 47.3256 20.9702 47.9393 21.6435C48.5529 22.3168 49.3754 22.6534 50.4066 22.6534C51.0629 22.6534 51.6765 22.5043 52.2475 22.206C52.8185 21.8991 53.2788 21.4474 53.6282 20.8509C53.9862 20.2543 54.1609 19.517 54.1523 18.6392ZM67.4006 15.6477V27H61.9545V7.36364H67.1449V10.8281H67.375C67.8097 9.68608 68.5384 8.78267 69.5611 8.1179C70.5838 7.4446 71.8239 7.10795 73.2812 7.10795C74.6449 7.10795 75.8338 7.40625 76.848 8.00284C77.8622 8.59943 78.6506 9.4517 79.2131 10.5597C79.7756 11.6591 80.0568 12.9716 80.0568 14.4972V27H74.6108V15.4688C74.6193 14.267 74.3125 13.3295 73.6903 12.6562C73.0682 11.9744 72.2116 11.6335 71.1207 11.6335C70.3878 11.6335 69.7401 11.7912 69.1776 12.1065C68.6236 12.4219 68.1889 12.8821 67.8736 13.4872C67.5668 14.0838 67.4091 14.804 67.4006 15.6477ZM89.5849 27.3196C88.0934 27.3196 86.7425 26.9361 85.5323 26.169C84.3306 25.3935 83.3761 24.2557 82.6687 22.7557C81.9698 21.2472 81.6204 19.3977 81.6204 17.2074C81.6204 14.9574 81.9826 13.0866 82.707 11.5952C83.4315 10.0952 84.3945 8.97443 85.5962 8.23295C86.8065 7.48295 88.1317 7.10795 89.5721 7.10795C90.6715 7.10795 91.5877 7.29545 92.3207 7.67045C93.0621 8.03693 93.6587 8.49716 94.1104 9.05114C94.5707 9.59659 94.9201 10.1335 95.1587 10.6619H95.3249V0.818181H100.758V27H95.3889V23.8551H95.1587C94.9031 24.4006 94.5408 24.9418 94.0721 25.4787C93.6119 26.0071 93.011 26.446 92.2695 26.7955C91.5366 27.1449 90.6417 27.3196 89.5849 27.3196ZM91.3107 22.9858C92.1886 22.9858 92.93 22.7472 93.5352 22.2699C94.1488 21.7841 94.6175 21.1065 94.9414 20.2372C95.2738 19.3679 95.44 18.3494 95.44 17.1818C95.44 16.0142 95.2781 15 94.9542 14.1392C94.6303 13.2784 94.1616 12.6136 93.5479 12.1449C92.9343 11.6761 92.1886 11.4418 91.3107 11.4418C90.4158 11.4418 89.6616 11.6847 89.0479 12.1705C88.4343 12.6562 87.9698 13.3295 87.6545 14.1903C87.3391 15.0511 87.1815 16.0483 87.1815 17.1818C87.1815 18.3239 87.3391 19.3338 87.6545 20.2116C87.9783 21.081 88.4428 21.7628 89.0479 22.2571C89.6616 22.7429 90.4158 22.9858 91.3107 22.9858ZM109.517 27V23.0114L118.836 14.3821C119.629 13.6151 120.294 12.9247 120.831 12.3111C121.376 11.6974 121.789 11.0966 122.071 10.5085C122.352 9.91193 122.493 9.26847 122.493 8.57812C122.493 7.81108 122.318 7.15057 121.968 6.59659C121.619 6.03409 121.142 5.60369 120.537 5.3054C119.931 4.99858 119.245 4.84517 118.478 4.84517C117.677 4.84517 116.978 5.0071 116.382 5.33097C115.785 5.65483 115.325 6.11932 115.001 6.72443C114.677 7.32954 114.515 8.04971 114.515 8.88494H109.261C109.261 7.17187 109.649 5.68466 110.424 4.4233C111.2 3.16193 112.287 2.18608 113.684 1.49574C115.082 0.805397 116.693 0.460226 118.517 0.460226C120.392 0.460226 122.024 0.792613 123.413 1.45739C124.811 2.11364 125.897 3.02557 126.673 4.19318C127.449 5.36079 127.836 6.69886 127.836 8.20739C127.836 9.19602 127.64 10.1719 127.248 11.1349C126.865 12.098 126.179 13.1676 125.19 14.3438C124.201 15.5114 122.808 16.9134 121.01 18.5497L117.187 22.2955V22.4744H128.181V27H109.517Z" fill="#DC0A0A"/>
</svg>
