<svg width="236" height="303" viewBox="0 0 236 303" fill="none" xmlns="http://www.w3.org/2000/svg">
<path d="M6.80114 303H4.80114V305H6.80114V303ZM6.80114 244.761L5.52633 243.22L4.80114 243.82V244.761H6.80114ZM118.037 152.744L119.312 154.285L119.313 154.284L118.037 152.744ZM136.964 135.564L135.538 134.163L135.537 134.163L136.964 135.564ZM149.195 118.82L147.412 117.914L147.406 117.926L147.4 117.938L149.195 118.82ZM148.612 80.0916L146.889 81.107L146.896 81.1183L146.903 81.1296L148.612 80.0916ZM135.217 67.5703L134.287 69.3408L134.299 69.347L134.311 69.3531L135.217 67.5703ZM95.6151 67.5703L94.6848 65.7998L94.6723 65.8064L95.6151 67.5703ZM82.5114 80.8196L80.7467 79.8784L82.5114 80.8196ZM77.8523 102.077V104.077H79.8523V102.077H77.8523ZM0.977273 102.077H-1.02273V104.077H0.977273V102.077ZM15.1001 47.9148L13.4017 46.8587H13.4017L15.1001 47.9148ZM54.9936 12.9716L55.8511 14.7784L54.9936 12.9716ZM177.44 12.2436L176.637 14.075L176.649 14.0803L177.44 12.2436ZM218.062 44.2749L216.416 45.4109L216.421 45.4187L218.062 44.2749ZM225.342 126.974L227.184 127.752L227.186 127.746L225.342 126.974ZM199.717 164.392L201.203 165.731L199.717 164.392ZM147.156 213.312L148.437 214.849L147.156 213.312ZM119.202 236.608L117.921 235.072L117.202 235.671V236.608H119.202ZM119.202 238.355H117.202V240.355H119.202V238.355ZM235.679 238.355H237.679V236.355H235.679V238.355ZM235.679 303V305H237.679V303H235.679ZM8.80114 303V244.761H4.80114V303H8.80114ZM8.07594 246.302L119.312 154.285L116.762 151.203L5.52633 243.22L8.07594 246.302ZM119.313 154.284C126.729 148.137 133.091 142.364 138.392 136.965L135.537 134.163C130.355 139.441 124.099 145.122 116.761 151.205L119.313 154.284ZM138.391 136.965C143.851 131.406 148.064 125.654 150.99 119.703L147.4 117.938C144.695 123.44 140.755 128.851 135.538 134.163L138.391 136.965ZM150.977 119.727C154.044 113.695 155.562 107.023 155.562 99.7472H151.562C151.562 106.449 150.169 112.492 147.412 117.914L150.977 119.727ZM155.562 99.7472C155.562 91.7887 153.848 84.8611 150.322 79.0537L146.903 81.1296C149.977 86.1934 151.562 92.3695 151.562 99.7472H155.562ZM150.335 79.0762C146.935 73.3059 142.184 68.8689 136.124 65.7875L134.311 69.3531C139.704 72.0956 143.883 76.0061 146.889 81.107L150.335 79.0762ZM136.148 65.7998C130.092 62.6182 123.164 61.0568 115.416 61.0568V65.0568C122.617 65.0568 128.889 66.5044 134.287 69.3408L136.148 65.7998ZM115.416 61.0568C107.669 61.0568 100.74 62.6182 94.6848 65.7998L96.5453 69.3408C101.944 66.5044 108.216 65.0568 115.416 65.0568V61.0568ZM94.6723 65.8064C88.6808 69.0088 84.0325 73.7176 80.7467 79.8784L84.2761 81.7608C87.2024 76.2739 91.2899 72.1498 96.5578 69.3342L94.6723 65.8064ZM80.7467 79.8784C77.4505 86.0586 75.8523 93.4858 75.8523 102.077H79.8523C79.8523 93.9725 81.3601 87.2283 84.2761 81.7608L80.7467 79.8784ZM77.8523 100.077H0.977273V104.077H77.8523V100.077ZM2.97727 102.077C2.97727 81.4175 7.61286 63.7438 16.7986 48.9708L13.4017 46.8587C3.75694 62.3699 -1.02273 80.8041 -1.02273 102.077H2.97727ZM16.7986 48.9708C25.9976 34.1765 38.9931 22.7789 55.8511 14.7784L54.1361 11.1647C36.6333 19.4711 23.0331 31.369 13.4017 46.8587L16.7986 48.9708ZM55.8511 14.7784C72.7122 6.77655 92.5489 2.74146 115.416 2.74146V-1.25854C92.0808 -1.25854 71.6358 2.85979 54.1361 11.1647L55.8511 14.7784ZM115.416 2.74146C139.085 2.74146 159.474 6.54231 176.637 14.075L178.244 10.4122C160.464 2.60871 139.503 -1.25854 115.416 -1.25854V2.74146ZM176.649 14.0803C193.923 21.5243 207.146 31.9791 216.416 45.4109L219.708 43.1388C209.953 29.0044 196.095 18.1049 178.232 10.4069L176.649 14.0803ZM216.421 45.4187C225.773 58.8317 230.476 74.584 230.476 92.7585H234.476C234.476 73.8544 229.57 57.2843 219.702 43.131L216.421 45.4187ZM230.476 92.7585C230.476 103.927 228.158 115.071 223.497 126.201L227.186 127.746C232.037 116.164 234.476 104.497 234.476 92.7585H230.476ZM223.499 126.195C218.862 137.173 210.476 149.458 198.231 163.054L201.203 165.731C213.611 151.954 222.309 139.293 227.184 127.752L223.499 126.195ZM198.231 163.054C185.993 176.64 168.554 192.878 145.876 211.776L148.437 214.849C171.185 195.892 188.785 179.517 201.203 165.731L198.231 163.054ZM145.876 211.776L117.921 235.072L120.482 238.144L148.437 214.849L145.876 211.776ZM117.202 236.608V238.355H121.202V236.608H117.202ZM119.202 240.355H235.679V236.355H119.202V240.355ZM233.679 238.355V303H237.679V238.355H233.679ZM235.679 301H6.80114V305H235.679V301Z" fill="white"/>
</svg>
