<svg width="18" height="18" viewBox="0 0 18 18" fill="none" xmlns="http://www.w3.org/2000/svg">
<path d="M0 2.41981C0 1.8426 0.202708 1.36641 0.608108 0.991237C1.01351 0.616051 1.54055 0.428467 2.18919 0.428467C2.82626 0.428467 3.34169 0.613159 3.73552 0.982579C4.14092 1.36353 4.34363 1.85991 4.34363 2.47176C4.34363 3.02587 4.14672 3.48762 3.7529 3.85704C3.3475 4.23799 2.81467 4.42847 2.15444 4.42847H2.13707C1.49999 4.42847 0.984562 4.23799 0.590734 3.85704C0.196905 3.47608 0 2.997 0 2.41981ZM0.225869 17.5713V6.00422H4.08301V17.5713H0.225869ZM6.22008 17.5713H10.0772V11.1124C10.0772 10.7084 10.1236 10.3967 10.2162 10.1774C10.3784 9.78488 10.6245 9.45298 10.9546 9.18171C11.2847 8.91042 11.6988 8.77478 12.1969 8.77478C13.4942 8.77478 14.1429 9.64635 14.1429 11.3895V17.5713H18V10.9393C18 9.23077 17.5946 7.93496 16.7838 7.05184C15.973 6.16872 14.9015 5.72717 13.5695 5.72717C12.0753 5.72717 10.9112 6.36786 10.0772 7.64924V7.68388H10.0598L10.0772 7.64924V6.00422H6.22008C6.24324 6.37362 6.25483 7.52225 6.25483 9.45011C6.25483 11.378 6.24324 14.085 6.22008 17.5713Z" fill="#0D0D0D"/>
</svg>
