<svg width="11" height="20" viewBox="0 0 11 20" fill="none" xmlns="http://www.w3.org/2000/svg">
<path d="M6.69815 19.9841C6.6008 19.9881 6.53849 19.996 6.47619 19.996C5.14441 19.996 3.81653 19.9921 2.48475 20C2.29784 20 2.24721 19.9484 2.24721 19.7579C2.25111 16.5985 2.25111 13.4352 2.25111 10.2759C2.25111 10.1925 2.25111 10.1092 2.25111 10.002C1.52681 10.002 0.82198 10.002 0.105469 10.002C0.105469 8.87478 0.105469 7.76742 0.105469 6.62831C0.179456 6.62831 0.24955 6.62831 0.315749 6.62831C0.899861 6.62831 1.48397 6.62434 2.06809 6.63228C2.21606 6.63228 2.255 6.58862 2.255 6.44176C2.24721 5.55667 2.24721 4.6676 2.255 3.78251C2.2589 3.16333 2.35625 2.56004 2.63662 2.00041C3.03771 1.21057 3.67245 0.698561 4.47463 0.381038C5.12883 0.119081 5.81809 0.0238242 6.51123 0.011917C7.64052 -0.00395911 8.7698 0.00397896 9.89908 9.92264e-06C10.0042 9.92264e-06 10.0899 -0.00395912 10.0899 0.146864C10.086 1.23835 10.086 2.32984 10.086 3.42132C10.086 3.43323 10.0821 3.44514 10.0665 3.49673C10.0003 3.49673 9.92634 3.49673 9.85235 3.49673C9.15142 3.49673 8.45048 3.49276 7.74955 3.49673C7.34457 3.49673 7.01746 3.66343 6.81108 4.02462C6.74877 4.13178 6.70983 4.2707 6.70983 4.39771C6.69815 5.07244 6.70983 5.74718 6.70204 6.42192C6.70204 6.58068 6.74877 6.62434 6.90064 6.62434C7.87416 6.6164 8.84768 6.62037 9.8212 6.62037C9.89908 6.62037 9.97307 6.62037 10.1055 6.62037C9.96918 7.75551 9.83678 8.86685 9.70048 9.99008C8.68802 9.99008 7.70282 9.99008 6.69815 9.99008C6.69815 13.328 6.69815 16.6462 6.69815 19.9841Z" fill="#333333"/>
</svg>
