<svg width="21" height="18" viewBox="0 0 21 18" fill="none" xmlns="http://www.w3.org/2000/svg">
<path d="M4.62791 6.10498H0.0698242V17.9985H4.62791V6.10498Z" fill="#333333"/>
<path d="M2.30689 4.20906C3.58095 4.20906 4.61377 3.26683 4.61377 2.10453C4.61377 0.94223 3.58095 0 2.30689 0C1.03283 0 0 0.94223 0 2.10453C0 3.26683 1.03283 4.20906 2.30689 4.20906Z" fill="#333333"/>
<path d="M16.0849 5.8374C15.1515 5.8374 14.3605 6.00738 13.7104 6.34702C13.0609 6.68698 12.4191 7.25229 11.7842 8.0436V6.10614H7.53955V17.9996H12.0976V12.2879C12.0976 11.2052 12.2696 10.4554 12.6131 10.0371C12.9566 9.61908 13.4041 9.40992 13.9567 9.40992C14.457 9.40992 14.8452 9.56501 15.1217 9.87486C15.3982 10.1847 15.5358 10.7128 15.5358 11.4597V17.9996H20.1165V10.4405C20.1165 8.87246 19.7597 7.71335 19.0465 6.96284C18.3342 6.21233 17.3463 5.8374 16.0849 5.8374Z" fill="#333333"/>
</svg>
